<svg version="1.1" viewBox="0.0 0.0 1734.0 1182.0" fill="none" stroke="none" stroke-linecap="square" stroke-miterlimit="10" xmlns:xlink="http://www.w3.org/1999/xlink" xmlns="http://www.w3.org/2000/svg"><clipPath id="p.0"><path d="m0 0l1734.0 0l0 1182.0l-1734.0 0l0 -1182.0z" clip-rule="nonzero"/></clipPath><g clip-path="url(#p.0)"><path fill="#000000" fill-opacity="0.0" d="m0 0l1734.0 0l0 1182.0l-1734.0 0z" fill-rule="evenodd"/><path fill="#000000" fill-opacity="0.0" d="m-0.005249344 763.75977l227.81102 -111.90546" fill-rule="evenodd"/><path stroke="#000000" stroke-width="24.0" stroke-linejoin="round" stroke-linecap="butt" d="m-0.005249344 763.75977l227.81102 -111.90546" fill-rule="evenodd"/><path fill="#000000" fill-opacity="0.0" d="m11.376479 769.0346l449.95276 -31.905457" fill-rule="evenodd"/><path stroke="#000000" stroke-width="24.0" stroke-linejoin="round" stroke-linecap="butt" d="m11.376479 769.0346l449.95276 -31.905457" fill-rule="evenodd"/><path fill="#000000" fill-opacity="0.0" d="m461.2574 739.7614l512.4724 -739.74805" fill-rule="evenodd"/><path stroke="#000000" stroke-width="24.0" stroke-linejoin="round" stroke-linecap="butt" d="m461.2574 739.7614l512.4724 -739.74805" fill-rule="evenodd"/><path fill="#000000" fill-opacity="0.0" d="m973.91943 0.09611181l21.29132 613.2913" fill-rule="evenodd"/><path stroke="#000000" stroke-width="16.0" stroke-linejoin="round" stroke-linecap="butt" d="m973.91943 0.09611181l21.29132 613.2913" fill-rule="evenodd"/><path fill="#000000" fill-opacity="0.0" d="m999.5434 612.06226l68.22052 -603.937" fill-rule="evenodd"/><path stroke="#000000" stroke-width="12.0" stroke-linejoin="round" stroke-linecap="butt" d="m999.5434 612.06226l68.22052 -603.937" fill-rule="evenodd"/><path fill="#000000" fill-opacity="0.0" d="m1069.317 10.730639l0 457.6378" fill-rule="evenodd"/><path stroke="#000000" stroke-width="8.0" stroke-linejoin="round" stroke-linecap="butt" d="m1069.317 10.730639l0 457.6378" fill-rule="evenodd"/><path fill="#000000" fill-opacity="0.0" d="m1075.0079 468.383l15.653564 -57.19687" fill-rule="evenodd"/><path stroke="#000000" stroke-width="8.0" stroke-linejoin="round" stroke-linecap="butt" d="m1075.0079 468.383l15.653564 -57.19687" fill-rule="evenodd"/><path fill="#000000" fill-opacity="0.0" d="m1092.0956 412.50928l21.291382 57.19687" fill-rule="evenodd"/><path stroke="#000000" stroke-width="8.0" stroke-linejoin="round" stroke-linecap="butt" d="m1092.0956 412.50928l21.291382 57.19687" fill-rule="evenodd"/><path fill="#000000" fill-opacity="0.0" d="m1114.9954 465.75262l14.1102295 -51.968506" fill-rule="evenodd"/><path stroke="#000000" stroke-width="8.0" stroke-linejoin="round" stroke-linecap="butt" d="m1114.9954 465.75262l14.1102295 -51.968506" fill-rule="evenodd"/><path fill="#000000" fill-opacity="0.0" d="m1130.5392 415.1679l22.740234 50.55121" fill-rule="evenodd"/><path stroke="#000000" stroke-width="8.0" stroke-linejoin="round" stroke-linecap="butt" d="m1130.5392 415.1679l22.740234 50.55121" fill-rule="evenodd"/><path fill="#000000" fill-opacity="0.0" d="m1154.7405 464.3809l24.189087 -457.6378" fill-rule="evenodd"/><path stroke="#000000" stroke-width="8.0" stroke-linejoin="round" stroke-linecap="butt" d="m1154.7405 464.3809l24.189087 -457.6378" fill-rule="evenodd"/><path fill="#000000" fill-opacity="0.0" d="m1178.957 10.730639l31.307007 606.61414" fill-rule="evenodd"/><path stroke="#000000" stroke-width="12.0" stroke-linejoin="round" stroke-linecap="butt" d="m1178.957 10.730639l31.307007 606.61414" fill-rule="evenodd"/><path fill="#000000" fill-opacity="0.0" d="m1213.1173 617.3795l76.81885 -610.5827" fill-rule="evenodd"/><path stroke="#000000" stroke-width="16.0" stroke-linejoin="round" stroke-linecap="butt" d="m1213.1173 617.3795l76.81885 -610.5827" fill-rule="evenodd"/><path fill="#000000" fill-opacity="0.0" d="m1290.0045 5.413374l413.98425 1034.1417" fill-rule="evenodd"/><path stroke="#000000" stroke-width="24.0" stroke-linejoin="round" stroke-linecap="butt" d="m1290.0045 5.413374l413.98425 1034.1417" fill-rule="evenodd"/><path fill="#000000" fill-opacity="0.0" d="m869.5163 625.7407l0 0c0 -97.489136 104.46216 -176.51968 233.32281 -176.51968l0 0c128.8606 0 233.32288 79.03055 233.32288 176.51968l0 0c0 97.489136 -104.46228 176.51965 -233.32288 176.51965l0 0c-128.86066 0 -233.32281 -79.03052 -233.32281 -176.51965z" fill-rule="evenodd"/><path stroke="#000000" stroke-width="24.0" stroke-linejoin="round" stroke-linecap="butt" d="m869.5163 625.7407l0 0c0 -97.489136 104.46216 -176.51968 233.32281 -176.51968l0 0c128.8606 0 233.32288 79.03055 233.32288 176.51968l0 0c0 97.489136 -104.46228 176.51965 -233.32288 176.51965l0 0c-128.86066 0 -233.32281 -79.03052 -233.32281 -176.51965z" fill-rule="evenodd"/><path fill="#cfe2f3" d="m941.8648 664.7418c-38.44336 14.36853 46.139587 65.55646 83.621765 80.823c37.4823 15.266602 102.82837 25.144958 141.27173 10.776428c38.44336 -14.36853 126.870605 -81.72101 89.388306 -96.98761c-37.482178 -15.266541 -275.83844 -8.980347 -314.2818 5.3881836z" fill-rule="evenodd"/><path stroke="#000000" stroke-width="8.0" stroke-linejoin="round" stroke-linecap="butt" d="m941.8648 664.7418c-38.44336 14.36853 46.139587 65.55646 83.621765 80.823c37.4823 15.266602 102.82837 25.144958 141.27173 10.776428c38.44336 -14.36853 126.870605 -81.72101 89.388306 -96.98761c-37.482178 -15.266541 -275.83844 -8.980347 -314.2818 5.3881836z" fill-rule="evenodd"/><path fill="#000000" fill-opacity="0.0" d="m962.05334 599.8731l0 0c0 -8.810486 15.2716675 -15.952759 34.11023 -15.952759l0 0c18.838562 0 34.11023 7.142273 34.11023 15.952759l0 0c0 8.810425 -15.2716675 15.952759 -34.11023 15.952759l0 0c-18.838562 0 -34.11023 -7.142334 -34.11023 -15.952759z" fill-rule="evenodd"/><path stroke="#000000" stroke-width="8.0" stroke-linejoin="round" stroke-linecap="butt" d="m962.05334 599.8731l0 0c0 -8.810486 15.2716675 -15.952759 34.11023 -15.952759l0 0c18.838562 0 34.11023 7.142273 34.11023 15.952759l0 0c0 8.810425 -15.2716675 15.952759 -34.11023 15.952759l0 0c-18.838562 0 -34.11023 -7.142334 -34.11023 -15.952759z" fill-rule="evenodd"/><path fill="#000000" fill-opacity="0.0" d="m1178.957 599.8731l0 0c0 -8.810486 17.196411 -15.952759 38.409424 -15.952759l0 0c21.21289 0 38.409424 7.142273 38.409424 15.952759l0 0c0 8.810425 -17.196533 15.952759 -38.409424 15.952759l0 0c-21.213013 0 -38.409424 -7.142334 -38.409424 -15.952759z" fill-rule="evenodd"/><path stroke="#000000" stroke-width="8.0" stroke-linejoin="round" stroke-linecap="butt" d="m1178.957 599.8731l0 0c0 -8.810486 17.196411 -15.952759 38.409424 -15.952759l0 0c21.21289 0 38.409424 7.142273 38.409424 15.952759l0 0c0 8.810425 -17.196533 15.952759 -38.409424 15.952759l0 0c-21.213013 0 -38.409424 -7.142334 -38.409424 -15.952759z" fill-rule="evenodd"/><path fill="#000000" fill-opacity="0.0" d="m424.90247 975.23157c15.228638 -15.409973 77.46219 -73.31079 91.371765 -92.459595c13.909668 -19.148865 -0.5918579 -19.600891 -7.9140625 -22.433289c-7.322235 -2.8323975 -32.798584 -26.740784 -36.019257 5.4387817c-3.2206726 32.179565 39.39212 152.51245 16.69522 187.63867c-22.6969 35.1261 -153.75449 33.65576 -152.87668 23.118408c0.8778076 -10.5373535 119.04654 -71.04584 158.14352 -86.34271c39.096985 -15.296936 59.452515 20.395508 76.43829 -5.438843c16.98584 -25.83429 23.133545 -173.13513 25.47638 -149.56696c2.3428955 23.568115 -15.812805 266.61414 -11.419128 290.97583c4.3936157 24.361572 32.509583 -133.81567 37.781006 -144.80634c5.2714233 -10.990601 -12.155518 65.15265 -6.1523438 78.86261c6.003235 13.709961 29.431885 15.749023 42.17163 3.397461c12.739685 -12.35144 32.801636 -63.909424 34.266724 -77.50647c1.4650269 -13.596985 -26.647827 -19.032227 -25.47638 -4.0755005c1.1714478 14.956665 23.573181 77.952576 32.504944 93.815735c8.931824 15.863159 13.03186 8.728027 21.085815 1.3632812c8.054016 -7.364746 17.8667 -15.978638 27.23816 -45.551758c9.37146 -29.573181 29.430298 -109.79193 28.990662 -131.88733c-0.43969727 -22.095459 -29.285828 -31.051819 -31.628723 -0.6852417c-2.3428345 30.366638 0.8793335 151.72491 17.571533 182.88507c16.692139 31.160034 69.403564 14.160767 82.58142 4.0754395c13.177856 -10.085327 9.37146 -55.522827 -3.5142822 -64.58746c-12.885803 -9.064697 -61.793884 6.4594116 -73.80029 10.199524c-12.00647 3.7401123 -15.078003 13.713623 1.7617188 12.240845c16.839783 -1.4726562 82.73059 -17.564209 99.27667 -21.077087" fill-rule="evenodd"/><path stroke="#000000" stroke-width="8.0" stroke-linejoin="round" stroke-linecap="butt" d="m424.90247 975.23157c15.228638 -15.409973 77.46219 -73.31079 91.371765 -92.459595c13.909668 -19.148865 -0.5918579 -19.600891 -7.9140625 -22.433289c-7.322235 -2.8323975 -32.798584 -26.740784 -36.019257 5.4387817c-3.2206726 32.179565 39.39212 152.51245 16.69522 187.63867c-22.6969 35.1261 -153.75449 33.65576 -152.87668 23.118408c0.8778076 -10.5373535 119.04654 -71.04584 158.14352 -86.34271c39.096985 -15.296936 59.452515 20.395508 76.43829 -5.438843c16.98584 -25.83429 23.133545 -173.13513 25.47638 -149.56696c2.3428955 23.568115 -15.812805 266.61414 -11.419128 290.97583c4.3936157 24.361572 32.509583 -133.81567 37.781006 -144.80634c5.2714233 -10.990601 -12.155518 65.15265 -6.1523438 78.86261c6.003235 13.709961 29.431885 15.749023 42.17163 3.397461c12.739685 -12.35144 32.801636 -63.909424 34.266724 -77.50647c1.4650269 -13.596985 -26.647827 -19.032227 -25.47638 -4.0755005c1.1714478 14.956665 23.573181 77.952576 32.504944 93.815735c8.931824 15.863159 13.03186 8.728027 21.085815 1.3632812c8.054016 -7.364746 17.8667 -15.978638 27.23816 -45.551758c9.37146 -29.573181 29.430298 -109.79193 28.990662 -131.88733c-0.43969727 -22.095459 -29.285828 -31.051819 -31.628723 -0.6852417c-2.3428345 30.366638 0.8793335 151.72491 17.571533 182.88507c16.692139 31.160034 69.403564 14.160767 82.58142 4.0754395c13.177856 -10.085327 9.37146 -55.522827 -3.5142822 -64.58746c-12.885803 -9.064697 -61.793884 6.4594116 -73.80029 10.199524c-12.00647 3.7401123 -15.078003 13.713623 1.7617188 12.240845c16.839783 -1.4726562 82.73059 -17.564209 99.27667 -21.077087" fill-rule="evenodd"/><path fill="#000000" fill-opacity="0.0" d="m869.5163 1037.3673c14.495605 -4.938843 79.29889 -29.923279 86.973694 -29.632568c7.6747437 0.29077148 -51.666504 28.471558 -40.92505 31.377075c10.741516 2.9055176 87.81152 -11.619995 105.37384 -13.94397" fill-rule="evenodd"/><path stroke="#000000" stroke-width="8.0" stroke-linejoin="round" stroke-linecap="butt" d="m869.5163 1037.3673c14.495605 -4.938843 79.29889 -29.923279 86.973694 -29.632568c7.6747437 0.29077148 -51.666504 28.471558 -40.92505 31.377075c10.741516 2.9055176 87.81152 -11.619995 105.37384 -13.94397" fill-rule="evenodd"/><path fill="#000000" fill-opacity="0.0" d="m1076.3041 915.9384c5.3797607 -7.609436 40.868164 -35.48291 32.278442 -45.656616c-8.589722 -10.173706 -65.943115 -20.088074 -83.81665 -15.385803c-17.873596 4.7022705 -35.224243 13.164368 -23.42456 43.599426c11.799744 30.434998 73.746826 100.19708 94.22278 139.0108c20.475952 38.8136 44.85681 75.3197 28.632935 93.871216c-16.223877 18.551392 -97.77881 20.429932 -125.97644 17.4375c-28.19757 -2.9924316 -58.652344 -20.430908 -43.209045 -35.39209c15.443237 -14.961304 106.89044 -44.37317 135.86871 -54.37549c28.97815 -10.002319 27.84961 -7.8615723 38.00061 -5.6384277c10.151001 2.2232666 13.534912 15.729614 22.905273 18.977905c9.370361 3.248169 25.941284 7.949585 33.316772 0.5115967c7.3754883 -7.4379883 12.757935 -34.6239 10.936157 -45.13965c-1.8217773 -10.515686 -13.710693 -15.732239 -21.866821 -17.95459c-8.156128 -2.222351 -21.170044 -3.4160767 -27.069946 4.6206055c-5.8997803 8.036682 -14.662598 33.768555 -8.329224 43.599365c6.333496 9.830933 36.09143 13.419312 46.329834 15.385864c10.238403 1.9665527 11.456299 5.6464844 15.10083 -3.58667c3.6444092 -9.233032 -1.1286621 -41.638184 6.7661133 -51.81195c7.8946533 -10.173767 32.70642 -12.222839 40.60205 -9.230408c7.89563 2.9924316 7.378296 22.568848 6.7716064 27.184937c-0.60668945 4.616211 -9.977051 3.6746826 -10.411499 0.51171875c-0.43444824 -3.163086 9.019653 -13.676025 7.8045654 -19.48944c-1.21521 -5.8134766 -7.807251 -14.280029 -15.095337 -15.391235c-7.288086 -1.111145 -23.340698 -4.0999756 -28.633057 8.724182c-5.2922363 12.824219 -12.143921 56.594116 -3.1206055 68.22107c9.023193 11.626831 45.28772 14.022339 57.260498 1.5401611c11.972778 -12.482178 10.411499 -62.754944 14.57605 -76.43359c4.164551 -13.67865 9.543457 -18.889832 10.411499 -5.6384277c0.868042 13.251465 -11.623901 69.92993 -5.203003 85.14697c6.4208984 15.217163 35.226074 8.891235 43.72827 6.1553955c8.502319 -2.7357178 6.071167 -18.808105 7.2854004 -22.569702" fill-rule="evenodd"/><path stroke="#000000" stroke-width="8.0" stroke-linejoin="round" stroke-linecap="butt" d="m1076.3041 915.9384c5.3797607 -7.609436 40.868164 -35.48291 32.278442 -45.656616c-8.589722 -10.173706 -65.943115 -20.088074 -83.81665 -15.385803c-17.873596 4.7022705 -35.224243 13.164368 -23.42456 43.599426c11.799744 30.434998 73.746826 100.19708 94.22278 139.0108c20.475952 38.8136 44.85681 75.3197 28.632935 93.871216c-16.223877 18.551392 -97.77881 20.429932 -125.97644 17.4375c-28.19757 -2.9924316 -58.652344 -20.430908 -43.209045 -35.39209c15.443237 -14.961304 106.89044 -44.37317 135.86871 -54.37549c28.97815 -10.002319 27.84961 -7.8615723 38.00061 -5.6384277c10.151001 2.2232666 13.534912 15.729614 22.905273 18.977905c9.370361 3.248169 25.941284 7.949585 33.316772 0.5115967c7.3754883 -7.4379883 12.757935 -34.6239 10.936157 -45.13965c-1.8217773 -10.515686 -13.710693 -15.732239 -21.866821 -17.95459c-8.156128 -2.222351 -21.170044 -3.4160767 -27.069946 4.6206055c-5.8997803 8.036682 -14.662598 33.768555 -8.329224 43.599365c6.333496 9.830933 36.09143 13.419312 46.329834 15.385864c10.238403 1.9665527 11.456299 5.6464844 15.10083 -3.58667c3.6444092 -9.233032 -1.1286621 -41.638184 6.7661133 -51.81195c7.8946533 -10.173767 32.70642 -12.222839 40.60205 -9.230408c7.89563 2.9924316 7.378296 22.568848 6.7716064 27.184937c-0.60668945 4.616211 -9.977051 3.6746826 -10.411499 0.51171875c-0.43444824 -3.163086 9.019653 -13.676025 7.8045654 -19.48944c-1.21521 -5.8134766 -7.807251 -14.280029 -15.095337 -15.391235c-7.288086 -1.111145 -23.340698 -4.0999756 -28.633057 8.724182c-5.2922363 12.824219 -12.143921 56.594116 -3.1206055 68.22107c9.023193 11.626831 45.28772 14.022339 57.260498 1.5401611c11.972778 -12.482178 10.411499 -62.754944 14.57605 -76.43359c4.164551 -13.67865 9.543457 -18.889832 10.411499 -5.6384277c0.868042 13.251465 -11.623901 69.92993 -5.203003 85.14697c6.4208984 15.217163 35.226074 8.891235 43.72827 6.1553955c8.502319 -2.7357178 6.071167 -18.808105 7.2854004 -22.569702" fill-rule="evenodd"/><path fill="#000000" fill-opacity="0.0" d="m1282.8711 948.1617c-2.7659912 0 -14.936035 -3.5194702 -16.595581 0c-1.6595459 3.5195312 1.5201416 22.87677 6.6381836 21.117004c5.118042 -1.7597656 20.05835 -26.39624 24.070068 -31.675476" fill-rule="evenodd"/><path stroke="#000000" stroke-width="8.0" stroke-linejoin="round" stroke-linecap="butt" d="m1282.8711 948.1617c-2.7659912 0 -14.936035 -3.5194702 -16.595581 0c-1.6595459 3.5195312 1.5201416 22.87677 6.6381836 21.117004c5.118042 -1.7597656 20.05835 -26.39624 24.070068 -31.675476" fill-rule="evenodd"/><path fill="#000000" fill-opacity="0.0" d="m1388.2738 1004.36926c1.3076172 12.863464 14.386353 63.212036 7.845459 77.18091c-6.5407715 13.96875 -36.71997 18.469482 -47.090332 6.631836c-10.370361 -11.837769 -18.86914 -64.556885 -15.131836 -77.65814c3.7373047 -13.101257 24.662476 -6.157898 37.555786 -0.9495239c12.893311 5.208374 31.67517 18.072632 39.804077 32.199707c8.128906 14.126953 2.428833 43.802124 8.9696045 52.5625c6.5408936 8.760376 24.482056 1.3414307 30.27539 0c5.793335 -1.3414307 3.2703857 -8.601318 4.484741 -8.048706c1.2143555 0.5526123 -1.40271 34.093872 2.8015137 11.364624c4.2043457 -22.729248 22.23767 -121.22241 22.424072 -147.7398c0.18640137 -26.517395 -22.613403 -39.46039 -21.305786 -11.364624c1.3076172 28.095825 8.875488 156.0263 29.151245 179.93951c20.275757 23.913208 77.08618 -30.383423 92.50342 -36.460205" fill-rule="evenodd"/><path stroke="#000000" stroke-width="8.0" stroke-linejoin="round" stroke-linecap="butt" d="m1388.2738 1004.36926c1.3076172 12.863464 14.386353 63.212036 7.845459 77.18091c-6.5407715 13.96875 -36.71997 18.469482 -47.090332 6.631836c-10.370361 -11.837769 -18.86914 -64.556885 -15.131836 -77.65814c3.7373047 -13.101257 24.662476 -6.157898 37.555786 -0.9495239c12.893311 5.208374 31.67517 18.072632 39.804077 32.199707c8.128906 14.126953 2.428833 43.802124 8.9696045 52.5625c6.5408936 8.760376 24.482056 1.3414307 30.27539 0c5.793335 -1.3414307 3.2703857 -8.601318 4.484741 -8.048706c1.2143555 0.5526123 -1.40271 34.093872 2.8015137 11.364624c4.2043457 -22.729248 22.23767 -121.22241 22.424072 -147.7398c0.18640137 -26.517395 -22.613403 -39.46039 -21.305786 -11.364624c1.3076172 28.095825 8.875488 156.0263 29.151245 179.93951c20.275757 23.913208 77.08618 -30.383423 92.50342 -36.460205" fill-rule="evenodd"/></g></svg>